<svg width="47" height="55" viewBox="0 0 47 55" fill="none" xmlns="http://www.w3.org/2000/svg">
<path d="M38.4378 52.56C35.4569 55.4496 32.2024 54.9933 29.0694 53.6246C25.754 52.2254 22.7124 52.1646 19.2144 53.6246C14.8344 55.5104 12.5228 54.9629 9.90695 52.56C-4.93639 37.2604 -2.74639 13.9613 14.1044 13.1096C18.2107 13.3225 21.0699 15.3604 23.4728 15.5429C27.0619 14.8129 30.499 12.7142 34.3315 12.9879C38.9244 13.3529 42.3919 15.1779 44.6732 18.4629C35.1832 24.1508 37.434 36.6521 46.1332 40.15C44.3994 44.7125 42.1486 49.2446 38.4074 52.5904L38.4378 52.56ZM23.1686 12.9271C22.7124 6.14417 28.2178 0.5475 34.5444 0C35.4265 7.8475 27.4269 13.6875 23.1686 12.9271Z" fill="black"/>
</svg>
