<svg width="59" height="59" viewBox="0 0 59 59" fill="none" xmlns="http://www.w3.org/2000/svg">
<path d="M33.3573 34.437C33.3934 34.4595 33.4351 34.4714 33.4776 34.4714C33.5201 34.4714 33.5617 34.4595 33.5978 34.437C39.9177 31.4528 45.8658 27.7376 51.3201 23.3675C53.0333 21.8654 54.095 19.7559 54.2808 17.485C53.9907 13.7701 52.2935 10.306 49.5358 7.8C43.1258 15.9248 37.6793 24.7653 33.3053 34.1445C33.3053 34.1445 33.2241 34.333 33.3573 34.437ZM57.9728 22.7272C57.9728 22.7272 42.6978 30.9237 34.7938 36.2732C34.7567 36.3065 34.7278 36.3478 34.7092 36.394C34.6906 36.4402 34.6828 36.4901 34.6866 36.5397C34.6866 36.5397 34.7678 36.673 34.8751 36.673C37.6961 36.673 48.4211 36.673 48.6843 36.647C49.7442 36.5668 50.7854 36.3245 51.7718 35.9287C54.3504 34.9114 56.4312 32.9296 57.5731 30.4037C58.6294 27.9772 58.7714 25.2503 57.9728 22.7272ZM53.1823 38.6165L35.1936 37.9665V37.9958C35.1498 37.9976 35.1071 38.0104 35.0696 38.0332C35.0321 38.0559 35.001 38.0878 34.9791 38.1258C34.9709 38.1694 34.9741 38.2145 34.9884 38.2566C35.0026 38.2987 35.0274 38.3364 35.0603 38.3662C37.976 40.5988 41.1476 42.4754 44.5081 43.9562C44.5081 43.9562 49.1653 45.5358 53.1823 38.6165ZM30.9101 32.9485L30.9361 33.0005C31.0953 33.0817 31.2026 32.8932 31.2026 32.8932C32.9316 30.394 40.6763 18.8695 42.2721 11.843C42.74 9.96504 42.74 8.00096 42.2721 6.123C41.8391 4.76666 41.0666 3.54351 40.028 2.5697C38.9893 1.59589 37.719 0.903745 36.3376 0.559C36.3376 0.559 34.9791 0.2145 33.5166 0C33.5166 0 28.1931 6.86725 30.7768 32.76C30.7732 32.8021 30.7846 32.8441 30.809 32.8786C30.8333 32.9132 30.8692 32.9379 30.9101 32.9485ZM27.3058 32.9485C27.4131 33.0818 27.5171 33.0265 27.5171 33.0265C27.5659 33.0185 27.6099 32.9922 27.6401 32.953C27.6702 32.9137 27.6844 32.8645 27.6796 32.8153C30.2308 6.91925 24.9463 0.0649999 24.9463 0.0649999L24.9756 0.0390003C24.2021 0.117 22.0733 0.598 22.0733 0.598C20.7016 0.946548 19.4415 1.63925 18.4122 2.61059C17.3828 3.58193 16.6183 4.7998 16.1908 6.149C15.6888 8.02262 15.6888 9.99538 16.1908 11.869C17.7898 18.915 25.5866 30.5273 27.3058 32.9485ZM6.66508 35.9028C7.75862 36.3436 8.91917 36.5952 10.0971 36.647C10.3636 36.699 20.7961 36.647 23.5911 36.647C23.6951 36.647 23.7763 36.5138 23.7763 36.5138V36.5397C23.8576 36.4065 23.7243 36.2732 23.7243 36.2732C15.8203 30.94 0.516083 22.7565 0.516083 22.7565C-0.312375 25.3192 -0.138546 28.1006 1.00253 30.5402C2.14361 32.9797 4.16708 34.896 6.66508 35.9028ZM23.2726 38.0055L5.30658 38.6165C7.25658 42.1037 10.5488 44.7915 13.9581 43.966C17.3304 42.4927 20.5116 40.6156 23.4318 38.376C23.5651 38.2428 23.5098 38.1355 23.5098 38.1355V38.1647C23.4902 38.1179 23.4572 38.0779 23.415 38.0496C23.3729 38.0213 23.3234 38.006 23.2726 38.0055ZM7.15583 23.3675C12.6278 27.7479 18.5943 31.4718 24.9333 34.463C24.9626 34.463 25.0958 34.5182 25.1738 34.411V34.437C25.205 34.4128 25.2271 34.3787 25.2365 34.3404C25.246 34.3021 25.2422 34.2617 25.2258 34.2257C20.8494 24.8134 15.3881 15.9447 8.95308 7.8C8.95308 7.8 3.84408 12.6425 4.23083 17.511C4.39352 19.773 5.44516 21.8786 7.15583 23.3675ZM56.2698 49.101H58.5058V58.5228H56.2698V49.101ZM46.0258 54.015C45.9657 54.7128 46.0773 55.4147 46.351 56.0594C46.6246 56.7041 47.0519 57.272 47.5956 57.7135C48.5183 58.3578 49.6412 58.6507 50.7611 58.539H54.3816V56.888H50.8683C49.1913 56.888 48.4471 56.277 48.4471 54.574H54.3816V52.923H48.4828V52.9783L48.4568 52.923H48.4926C48.4803 52.6176 48.5359 52.3133 48.6552 52.0318C48.7746 51.7504 48.9547 51.499 49.1828 51.2955C49.4108 51.0919 49.6811 50.9415 49.9742 50.8548C50.2674 50.7681 50.576 50.7475 50.8781 50.7943H54.3913V49.14H50.8163C47.5403 49.14 46.0258 50.6968 46.0258 54.015ZM48.4731 52.988V52.9328H48.4373L48.4731 52.988ZM41.1801 56.3388L38.8921 49.101H36.3636L34.3681 56.3388L32.0248 49.101H29.7108L33.1168 58.5228H35.7266L37.6148 51.4963L39.7988 58.5228H42.4053L45.5708 49.101H43.3641L41.1801 56.3388ZM26.8573 49.1758H24.5823L20.2696 58.6007H22.5446L23.4513 56.3647H27.8681L28.8008 58.6007H31.1928L26.8573 49.1758ZM24.1436 54.7008L25.6321 51.0803L27.1758 54.7008H24.1436ZM17.5558 54.743C17.5558 56.42 17.0228 57.1123 15.2808 57.1123C13.5388 57.1123 13.0058 56.394 13.0058 54.743V49.101H10.8413V54.795C10.7137 55.6818 10.9236 56.5842 11.4296 57.3235C11.933 57.8092 12.5375 58.1777 13.1999 58.4024C13.8624 58.6272 14.5663 58.7027 15.2613 58.6235C15.9564 58.7027 16.6603 58.6272 17.3227 58.4024C17.9852 58.1777 18.5897 57.8092 19.0931 57.3235C19.5903 56.5798 19.8069 55.6836 19.7041 54.795V49.101H17.5558V54.743ZM6.95758 52.9328H2.16708V49.101H0.0123332V58.5228H2.16708V54.5838H6.95758V58.5228H9.08633V49.101H6.95758V52.9328Z" fill="black"/>
</svg>
