<svg width="108" height="48" viewBox="0 0 108 48" fill="none" xmlns="http://www.w3.org/2000/svg">
<path d="M65.349 33.1605H80.064V39.1455H58.2525V8.4105H65.349V33.1605ZM95.679 27.4275H101.457V32.805C100.395 33.21 98.316 33.615 96.3405 33.615C89.9505 33.615 87.822 30.3705 87.822 23.778C87.822 17.487 89.847 13.7835 96.2325 13.7835C99.792 13.7835 101.812 14.8995 103.486 17.0325L107.906 12.969C105.206 9.1215 100.499 7.956 96.075 7.956C86.139 7.956 80.919 13.3785 80.919 23.724C80.919 34.02 85.6305 39.6 96.03 39.6C100.8 39.6 105.462 38.385 108 36.6075V21.6945H95.6745L95.679 27.4275ZM23.8095 0C30.1242 0 36.1802 2.5085 40.6454 6.97364C45.1105 11.4388 47.619 17.4948 47.619 23.8095C47.619 30.1242 45.1105 36.1802 40.6454 40.6454C36.1802 45.1105 30.1242 47.619 23.8095 47.619C17.4948 47.619 11.4388 45.1105 6.97364 40.6454C2.50849 36.1802 0 30.1242 0 23.8095C0 17.4948 2.50849 11.4388 6.97364 6.97364C11.4388 2.5085 17.4948 0 23.8095 0ZM38.0295 38.0565C39.9021 36.1918 41.3871 33.9748 42.3988 31.5335C43.4106 29.0921 43.9291 26.4747 43.9245 23.832V22.743L42.9345 22.7475H29.682V24.9705H41.661L41.6565 25.038C41.3415 29.5592 39.3262 33.7935 36.016 36.8891C32.7058 39.9848 28.3462 41.7122 23.814 41.724C21.4636 41.7299 19.1355 41.2696 16.9642 40.3697C14.7929 39.4698 12.8216 38.1483 11.1645 36.4815C9.49856 34.824 8.17783 32.8526 7.27874 30.6813C6.37965 28.51 5.92004 26.182 5.9265 23.832C5.9265 19.0575 7.7895 14.5665 11.1645 11.187C12.8215 9.52159 14.7922 8.20118 16.9626 7.30211C19.1331 6.40303 21.4602 5.94313 23.8095 5.949L24.9435 5.9625V3.735L23.814 3.7215C18.4818 3.72745 13.3696 5.848 9.59871 9.61803C5.82784 13.3881 3.70615 18.4998 3.699 23.832C3.699 29.205 5.7915 34.254 9.5895 38.0565C11.4522 39.9306 13.6681 41.4166 16.109 42.4284C18.5499 43.4403 21.1672 43.958 23.8095 43.9515C26.4533 43.9592 29.0724 43.4421 31.5149 42.4302C33.9574 41.4183 36.1747 39.9316 38.0385 38.0565M24.9435 32.22V13.2075H22.68V34.4475H29.682V32.22H24.9435ZM19.251 16.236C19.2528 15.6338 19.0758 15.0446 18.7424 14.543C18.409 14.0415 17.9343 13.6502 17.3783 13.4187C16.8224 13.1872 16.2102 13.126 15.6194 13.2427C15.0286 13.3594 14.4857 13.6489 14.0596 14.0744C13.6334 14.4999 13.3432 15.0423 13.2256 15.633C13.108 16.2236 13.1683 16.8359 13.399 17.3922C13.6297 17.9485 14.0203 18.4238 14.5213 18.7579C15.0223 19.092 15.6113 19.2699 16.2135 19.269C17.018 19.2678 17.7892 18.948 18.3584 18.3796C18.9277 17.8112 19.2486 17.0405 19.251 16.236Z" fill="black"/>
</svg>
