<svg width="18" height="18" viewBox="0 0 18 18" fill="none" xmlns="http://www.w3.org/2000/svg">
<path d="M9 0C4.02944 0 0 4.02938 0 8.99992C0 13.9705 4.02944 18 9 18C13.9706 18 18 13.9705 18 8.99992C18 4.02938 13.9706 0 9 0ZM5.76562 3.57501C5.95106 3.56408 6.11866 3.6749 6.24573 3.87162L7.47619 6.20503C7.60575 6.48153 7.53213 6.77763 7.33887 6.97519L6.77527 7.53887C6.74049 7.58654 6.7176 7.6402 6.71704 7.69924C6.93318 8.53586 7.5888 9.30752 8.16726 9.83821C8.74569 10.3689 9.3674 11.0874 10.1744 11.2577C10.2742 11.2855 10.3964 11.2954 10.4678 11.229L11.1226 10.5623C11.3486 10.3909 11.6756 10.3079 11.9169 10.448H11.9278L14.1482 11.7587C14.4741 11.9629 14.5078 12.3578 14.2745 12.598L12.7452 14.1153C12.5194 14.3469 12.2194 14.4246 11.9279 14.425C10.6387 14.3864 9.42051 13.7536 8.41995 13.1034C6.7776 11.9086 5.2711 10.4267 4.32533 8.6364C3.96259 7.88565 3.53649 6.92768 3.57716 6.08973C3.58079 5.77449 3.66607 5.46563 3.88807 5.26244L5.41737 3.73311C5.5365 3.63174 5.65436 3.58158 5.76562 3.57501Z" fill="white"/>
</svg>
