<svg width="165" height="26" viewBox="0 0 165 26" fill="none" xmlns="http://www.w3.org/2000/svg">
<path d="M136.242 0.783746L136.558 19.305H136.4L131.037 0.790623H122.217V24.1106H128.047L127.731 4.96374H127.889L133.636 24.1106H142.072V0.790623L136.242 0.783746ZM25.2106 0.783746L20.8038 24.3512H27.1838L30.415 2.915H30.5731L33.7288 24.3512H40.0262L35.695 0.790623L25.2106 0.783746ZM60.83 0.783746L57.915 18.755H57.7569L54.8419 0.790623H45.2375L44.7631 24.3512H50.6756L50.8338 3.15562H50.9094L54.8488 24.3512H60.8369L64.7763 3.15562H64.9344L65.0925 24.3512H71.005L70.455 0.790623L60.83 0.783746ZM10.8763 17.655C11.0491 18.2165 11.0751 18.813 10.9519 19.3875C10.7938 20.1712 10.2438 20.9619 8.66938 20.9619C7.17063 20.9619 6.30438 20.0956 6.30438 18.8306V16.5481H0V18.3631C0 23.6431 4.17312 25.2175 8.59375 25.2175C12.8425 25.2175 16.39 23.7187 16.94 19.855C17.2563 17.8062 17.0225 16.4725 16.94 15.9981C15.84 11.0344 6.85437 9.61125 6.22187 6.85437C6.14448 6.43857 6.14448 6.01205 6.22187 5.59624C6.38 4.80562 6.93688 4.015 8.35313 4.015C9.76937 4.015 10.5531 4.88813 10.5531 6.14625V7.5625H16.4656V5.9125C16.4656 0.790623 11.8181 0 8.51125 0C4.33125 0 0.86625 1.41625 0.23375 5.20437C0.0268442 6.24704 0.0550281 7.32272 0.31625 8.35312C1.25812 13.2344 9.69375 14.6575 10.8763 17.6481M87.5462 17.6481C87.78 18.1981 87.6975 18.9131 87.6219 19.3875C87.4638 20.1712 86.9137 20.9619 85.3394 20.9619C83.8406 20.9619 82.9744 20.0956 82.9744 18.8306V16.5481H76.67V18.3631C76.67 23.5606 80.7675 25.135 85.1813 25.135C89.4369 25.135 92.9019 23.7188 93.4519 19.7794C93.7681 17.7306 93.5344 16.4725 93.4519 15.9156C92.51 11.0344 83.6 9.53562 82.9744 6.85437C82.897 6.43857 82.897 6.01205 82.9744 5.59624C83.1325 4.80562 83.6825 4.015 85.1056 4.015C86.4394 4.015 87.3056 4.88813 87.3056 6.14625V7.5625H93.1356V5.9125C93.1356 0.790623 88.5638 0 85.2569 0C81.0837 0 77.6944 1.34062 77.0619 5.20437C76.9037 6.22875 76.9037 7.17062 77.1444 8.35312C78.0863 13.2344 86.3569 14.575 87.5462 17.6481ZM107.401 20.8038C109.051 20.8038 109.533 19.7037 109.684 19.0712C109.766 18.8306 109.766 18.4387 109.766 18.205V0.783746H115.748V17.7238C115.748 18.1981 115.748 19.0644 115.679 19.305C115.28 23.7119 111.815 25.1281 107.477 25.1281C103.146 25.1281 99.6806 23.7119 99.2819 19.2981C99.2819 19.0644 99.2063 18.1981 99.2063 17.7238V0.783746H105.188V18.1981C105.188 18.5144 105.188 18.8237 105.27 19.0644C105.27 19.69 105.751 20.7969 107.401 20.7969M156.571 20.5631C158.304 20.5631 158.854 19.4631 159.012 18.8237C159.087 18.59 159.087 18.1981 159.087 17.9575V14.5681H156.647V11.1031H165V17.4075C165 17.8819 165 18.1981 164.924 18.9888C164.526 23.32 160.82 24.8119 156.647 24.8119C152.474 24.8119 148.768 23.32 148.376 18.9819C148.294 18.1981 148.294 17.8819 148.294 17.4075V7.48C148.294 7.08812 148.376 6.2975 148.376 5.89875C148.926 1.49187 152.474 0.0756228 156.647 0.0756228C160.82 0.0756228 164.45 1.49187 164.918 5.90562C165 6.61374 165 7.48 165 7.48V8.27063H159.087V6.93C159.087 6.93 159.087 6.38 159.012 6.06375C158.929 5.51375 158.462 4.33124 156.647 4.33124C154.914 4.33124 154.447 5.43125 154.282 6.06375C154.206 6.37312 154.206 6.77187 154.206 7.16375V17.9575C154.206 18.2737 154.206 18.59 154.282 18.8237C154.282 19.4562 154.914 20.5631 156.571 20.5631Z" fill="black"/>
</svg>
