<svg width="133" height="24" viewBox="0 0 133 24" fill="none" xmlns="http://www.w3.org/2000/svg">
<path d="M47.3813 0C52.4851 0 56.5694 1.27459 59.6893 4.11192C61.8229 6.04596 63.0143 8.80017 62.9811 11.6874C62.9758 13.1124 62.6814 14.5215 62.1155 15.8293C61.5497 17.1372 60.7243 18.3166 59.6893 19.2961C56.7689 21.9782 52.2191 23.408 47.3868 23.408C42.5545 23.408 38.0768 21.9782 35.112 19.2961C34.0408 18.3426 33.1878 17.1693 32.6111 15.8563C32.0345 14.5432 31.7477 13.1213 31.7704 11.6874C31.7704 8.81679 32.9785 6.06259 35.112 4.11192C37.8828 1.596 42.7817 0 47.3813 0ZM47.3979 20.3379C49.9526 20.3379 52.3189 19.4457 53.9814 17.7998C55.6439 16.1373 56.3809 14.1423 56.3809 11.6874C56.3809 9.33771 55.5608 7.13767 53.9814 5.57492C52.3521 3.96784 49.9194 3.059 47.3979 3.059C44.8764 3.059 42.4492 3.96229 40.8033 5.57492C39.2239 7.13767 38.3982 9.33771 38.3982 11.6874C38.3645 13.9619 39.2286 16.1581 40.8033 17.7998C42.4492 19.4291 44.8654 20.3379 47.3979 20.3379ZM20.5707 9.43192C21.4573 9.65728 22.3182 9.95838 23.1531 10.3352C23.927 10.6931 24.6366 11.1762 25.2534 11.765C26.3451 12.9065 26.9658 14.436 26.9491 16.0154C26.961 16.8483 26.7772 17.6724 26.4124 18.4212C26.0476 19.1701 25.512 19.8228 24.8488 20.3268C23.6734 21.2143 22.3401 21.8706 20.9198 22.2609C18.7806 22.9347 16.5453 23.2529 14.3031 23.203C12.3524 23.203 11.2773 22.9757 9.79768 22.6654L9.37097 22.5767C7.74033 22.2168 6.14809 21.7009 4.61622 21.0362C4.54772 20.9897 4.46616 20.9664 4.38347 20.9697C4.26194 20.9726 4.14637 21.0229 4.06146 21.1099C3.97654 21.1969 3.92902 21.3136 3.92906 21.4352V22.5601H0.670555V14.3695H3.57439C3.59359 15.1996 3.85772 16.0055 4.3336 16.686C5.50843 18.1268 6.77193 18.681 7.97447 19.1243C10.0083 19.7893 12.1418 20.144 14.2698 20.2105C17.3343 20.2105 19.1243 19.4679 19.5122 19.3072L19.5621 19.285L19.5953 19.2739C19.9389 19.1465 21.3243 18.6422 21.3243 17.1016C21.3243 15.5832 20.0276 15.2507 19.1797 15.0345L19.0578 15.0068C18.1157 14.7519 15.9434 14.5192 13.5716 14.2698L12.7292 14.1811C10.5052 13.9536 8.29197 13.63 6.09585 13.2113C3.3361 12.6018 2.24993 11.5932 1.57385 10.967L1.52951 10.9226C0.543944 9.87175 -0.00315167 8.48419 1.36588e-05 7.04346C1.36588e-05 4.2948 1.88418 2.63229 4.2006 1.61263C6.72057 0.536825 9.43513 -0.00834836 12.1751 0.0110878C16.7192 0.0277128 20.4155 1.50734 21.7455 2.1945C22.2831 2.48267 22.5491 2.128 22.5491 1.862V1.03629H25.4695V8.17396H22.8538C22.6213 7.11386 22.0493 6.15856 21.2246 5.453C20.7227 5.05033 20.1692 4.71671 19.5787 4.46104C17.3869 3.5331 15.0261 3.07075 12.6461 3.10334C10.1911 3.10334 7.84147 3.57438 6.6611 4.29479C5.9259 4.75291 5.55646 5.31815 5.55276 5.99054C5.55276 6.94925 6.36185 7.33163 6.77193 7.448C7.8581 7.7805 10.2743 8.0188 12.1529 8.20721L13.2834 8.32359C15.0955 8.50646 18.8916 9.01075 20.5707 9.43192ZM121.246 3.90688V1.25242H133V3.857H130.362C129.409 3.857 129.021 4.03987 128.301 4.84896L120.393 13.8819C120.31 13.9934 120.273 14.1319 120.287 14.2698V18.3817C120.3 18.573 120.322 18.7635 120.354 18.9525C120.401 19.073 120.476 19.1809 120.572 19.2675C120.668 19.3541 120.783 19.417 120.908 19.4512C121.147 19.4854 121.387 19.5039 121.629 19.5067H124.322V22.1113H110.058V19.5067H112.607C112.848 19.5039 113.088 19.4854 113.327 19.4512C113.454 19.4162 113.572 19.3532 113.672 19.267C113.771 19.1807 113.851 19.0733 113.903 18.9525C113.929 18.7687 113.946 18.5838 113.953 18.3983V14.2864C113.953 14.1479 113.953 14.1479 113.77 13.9318L105.951 5.054C105.53 4.61621 104.81 3.91242 103.701 3.91242H101.163V1.30783H115.505V3.91242H113.776C113.388 3.91242 113.122 4.30033 113.455 4.7215L118.326 10.5458C118.376 10.6123 118.409 10.6123 118.475 10.5624C118.542 10.5125 123.43 4.77138 123.463 4.7215C123.504 4.66878 123.534 4.60834 123.551 4.54379C123.568 4.47924 123.572 4.41188 123.563 4.34571C123.554 4.27955 123.531 4.21594 123.497 4.15864C123.463 4.10134 123.417 4.05153 123.363 4.01217C123.266 3.94417 123.149 3.9092 123.031 3.91242L121.246 3.90688ZM86.4223 3.89025H89.11C90.3347 3.89025 90.5508 4.36129 90.5675 5.50287L90.7226 14.1811L76.4141 1.30229H66.1897V3.90688H68.4729C70.1187 3.90688 70.2351 4.81571 70.2351 5.62479V17.8885C70.2351 18.5978 70.2406 19.5233 69.2265 19.5233H66.4224V22.1113H78.4146V19.5067H75.4886C74.3138 19.5067 74.2694 18.9691 74.2473 17.8275V7.39812L90.7226 22.0891H94.9177L94.696 5.48625C94.7182 4.27817 94.8013 3.87363 96.0426 3.87363H98.6639V1.26904H86.4223V3.89025Z" fill="black"/>
</svg>
