<svg width="136" height="36" viewBox="0 0 136 36" fill="none" xmlns="http://www.w3.org/2000/svg">
<path d="M111.09 29.7429C104.523 29.7429 103.939 24.3596 103.939 22.7163C103.939 21.0729 104.523 15.6783 111.09 15.6783H122.775C129.348 15.6783 129.932 21.0673 129.932 22.7163C129.932 24.3596 129.343 29.7429 122.775 29.7429M111.09 9.75659C98.9524 9.75659 97.8701 19.6846 97.8701 22.7163C97.8701 25.7479 98.9467 35.6703 111.09 35.6703H122.775C134.919 35.6703 136.001 25.7479 136.001 22.7163C136.001 19.6846 134.924 9.75659 122.775 9.75659M91.7387 10.3629C90.118 10.3629 89.7837 10.6463 89.1547 11.5699C88.5314 12.4993 77.6967 29.0346 77.6967 29.0346C77.3567 29.5446 76.9827 29.7486 76.5294 29.7486C76.0761 29.7486 75.7077 29.5446 75.3621 29.0346C75.3621 29.0346 64.5274 12.4993 63.9041 11.5699C63.2807 10.6406 62.9407 10.3629 61.3201 10.3629H57.5347C56.6621 10.3629 56.2654 11.0429 56.8151 11.8759L69.7521 31.5223C71.7581 34.4746 73.2314 35.6703 76.5294 35.6703C79.8274 35.6703 81.3007 34.4803 83.3067 31.5223L96.2494 11.8759C96.7934 11.0486 96.3967 10.3629 95.5241 10.3629M45.2267 11.9723C45.2267 10.8219 45.6801 10.3629 46.8304 10.3629H49.6921C50.8424 10.3629 51.2957 10.8162 51.2957 11.9666V34.0666C51.2957 35.2113 50.8424 35.6703 49.6921 35.6703H46.8304C45.6801 35.6703 45.2267 35.2169 45.2267 34.0666V11.9723ZM35.2024 10.3573C33.5761 10.3573 33.2417 10.6406 32.6184 11.5642C31.9951 12.4936 21.1604 29.0289 21.1604 29.0289C20.8147 29.5389 20.4464 29.7429 19.9931 29.7429C19.5397 29.7429 19.1714 29.5389 18.8257 29.0289C18.8257 29.0289 7.99106 12.4936 7.36206 11.5642C6.73873 10.6349 6.40439 10.3573 4.78373 10.3573H0.992725C0.0237254 10.3573 -0.276608 11.0372 0.273059 11.8702L13.2101 31.5166C15.2217 34.4689 16.6951 35.6646 19.9931 35.6646C23.2911 35.6646 24.7644 34.4746 26.7704 31.5166L39.7074 11.8702C40.2571 11.0429 39.9567 10.3573 38.9877 10.3573M44.9661 5.29692C44.0311 4.36758 44.0311 3.62525 44.9661 2.69025L46.9551 0.70125C47.8901 -0.23375 48.6324 -0.23375 49.5617 0.70125L51.5564 2.69025C52.4914 3.62525 52.4914 4.36758 51.5564 5.29692L49.5617 7.29158C48.6324 8.22658 47.8901 8.22658 46.9551 7.29158L44.9661 5.29692Z" fill="black"/>
</svg>
