<svg width="56" height="38" viewBox="0 0 56 38" fill="none" xmlns="http://www.w3.org/2000/svg">
<path d="M46.578 37.3329C46.3802 37.3315 46.191 37.2524 46.0511 37.1125C45.9113 36.9727 45.8321 36.7834 45.8307 36.5857V0.747417C45.8321 0.549659 45.9113 0.360391 46.0511 0.220551C46.191 0.0807114 46.3802 0.00154206 46.578 0.000167098H55.237C55.3366 -0.00168764 55.4355 0.0162325 55.5281 0.0528894C55.6206 0.0895463 55.705 0.144211 55.7763 0.213716C55.8476 0.28322 55.9044 0.366183 55.9434 0.457796C55.9824 0.549409 56.0028 0.647851 56.0035 0.747417V36.5857C56.0035 37.0057 55.657 37.3417 55.237 37.3329H46.578ZM32.0583 37.3329C32.0583 37.3329 31.3652 37.1229 31.3652 36.5857V14.5829C31.3865 13.8969 31.2689 13.2136 31.0194 12.5742C30.7699 11.9348 30.3938 11.3524 29.9135 10.862C29.4333 10.3716 28.8589 9.9834 28.2248 9.72063C27.5907 9.45786 26.9101 9.32598 26.2238 9.33292H10.0363C9.09825 9.33292 9.3345 10.0347 9.3345 10.0347V36.5857C9.3345 37.2139 8.63275 37.3329 8.63275 37.3329H0.7665C0.666949 37.3348 0.568019 37.3169 0.475444 37.2802C0.382869 37.2435 0.298489 37.1889 0.227194 37.1194C0.155899 37.0499 0.099106 36.9669 0.0601068 36.8753C0.0211076 36.7837 0.000677388 36.6852 0 36.5857V0.747417C0 0.327417 0.3465 -0.0085829 0.7665 0.000167098H30.7807C33.4127 0.0199767 35.9306 1.07742 37.7875 2.94281C39.6443 4.8082 40.6902 7.33088 40.698 9.96292L40.7155 36.5874C40.7157 36.6856 40.6966 36.7829 40.6591 36.8736C40.6216 36.9644 40.5666 37.0469 40.4971 37.1163C40.4277 37.1858 40.3452 37.2408 40.2545 37.2783C40.1637 37.3157 40.0664 37.3349 39.9682 37.3347L32.0583 37.3329ZM15.9618 37.3329C15.8695 37.3331 15.7782 37.3152 15.6929 37.28C15.6077 37.2448 15.5302 37.1931 15.465 37.1279C15.3998 37.0627 15.3481 36.9852 15.3129 36.9C15.2778 36.8147 15.2598 36.7234 15.26 36.6312V15.6312C15.26 15.2479 15.5785 14.9294 15.9618 14.9294H24.7572C25.1405 14.9469 25.431 15.2584 25.431 15.6312V36.6312C25.4319 36.7228 25.4147 36.8138 25.3803 36.8988C25.3459 36.9838 25.295 37.0611 25.2306 37.1263C25.1662 37.1916 25.0895 37.2434 25.005 37.2789C24.9204 37.3143 24.8297 37.3327 24.738 37.3329H15.9618Z" fill="black"/>
</svg>
